{
    "asset" : {
        "generator" : "Khronos glTF Blender I/O v1.7.33",
        "version" : "2.0"
    },
    "scene" : 0,
    "scenes" : [
        {
            "name" : "Scene",
            "nodes" : [
                0,
                1,
                2
            ]
        }
    ],
    "nodes" : [
        {
            "mesh" : 0,
            "name" : "pen",
            "scale" : [
                0.8999999761581421,
                0.8999999761581421,
                0.8999999761581421
            ]
        },
        {
            "mesh" : 1,
            "name" : "ruler",
            "scale" : [
                1,
                0.699999988079071,
                0.8999999761581421
            ]
        },
        {
            "mesh" : 2,
            "name" : "ruler_guides",
            "translation" : [
                0,
                0.40000003576278687,
                0
            ]
        }
    ],
    "materials" : [
        {
            "doubleSided" : true,
            "name" : "pen",
            "pbrMetallicRoughness" : {
                "baseColorFactor" : [
                    0.5775805115699768,
                    0.6938719749450684,
                    0.8227860331535339,
                    1
                ],
                "metallicFactor" : 0,
                "roughnessFactor" : 0.5
            }
        },
        {
            "doubleSided" : true,
            "name" : "ruler",
            "pbrMetallicRoughness" : {
                "baseColorFactor" : [
                    0.5775805115699768,
                    0.6938719749450684,
                    0.8227860331535339,
                    1
                ],
                "metallicFactor" : 0,
                "roughnessFactor" : 0.5
            }
        }
    ],
    "meshes" : [
        {
            "name" : "Cube.001",
            "primitives" : [
                {
                    "attributes" : {
                        "POSITION" : 0,
                        "NORMAL" : 1,
                        "TEXCOORD_0" : 2
                    },
                    "indices" : 3,
                    "material" : 0
                }
            ]
        },
        {
            "name" : "Cube",
            "primitives" : [
                {
                    "attributes" : {
                        "POSITION" : 4,
                        "NORMAL" : 5,
                        "TEXCOORD_0" : 6
                    },
                    "indices" : 7,
                    "material" : 1
                }
            ]
        },
        {
            "name" : "Cube.003",
            "primitives" : [
                {
                    "attributes" : {
                        "POSITION" : 8,
                        "NORMAL" : 9,
                        "TEXCOORD_0" : 10
                    },
                    "indices" : 11,
                    "material" : 1
                }
            ]
        }
    ],
    "accessors" : [
        {
            "bufferView" : 0,
            "componentType" : 5126,
            "count" : 4248,
            "max" : [
                0.3999999761581421,
                2.799999952316284,
                0.4000001549720764
            ],
            "min" : [
                -0.3999999761581421,
                -2.8000001907348633,
                -0.4000002145767212
            ],
            "type" : "VEC3"
        },
        {
            "bufferView" : 1,
            "componentType" : 5126,
            "count" : 4248,
            "type" : "VEC3"
        },
        {
            "bufferView" : 2,
            "componentType" : 5126,
            "count" : 4248,
            "type" : "VEC2"
        },
        {
            "bufferView" : 3,
            "componentType" : 5123,
            "count" : 6396,
            "type" : "SCALAR"
        },
        {
            "bufferView" : 4,
            "componentType" : 5126,
            "count" : 192,
            "max" : [
                0.10000002384185791,
                0.699999988079071,
                2.4000000953674316
            ],
            "min" : [
                -0.10000002384185791,
                -0.699999988079071,
                -2.4000000953674316
            ],
            "type" : "VEC3"
        },
        {
            "bufferView" : 5,
            "componentType" : 5126,
            "count" : 192,
            "type" : "VEC3"
        },
        {
            "bufferView" : 6,
            "componentType" : 5126,
            "count" : 192,
            "type" : "VEC2"
        },
        {
            "bufferView" : 7,
            "componentType" : 5123,
            "count" : 372,
            "type" : "SCALAR"
        },
        {
            "bufferView" : 8,
            "componentType" : 5126,
            "count" : 4032,
            "max" : [
                0.14000003039836884,
                0.17017507553100586,
                2.0500874519348145
            ],
            "min" : [
                -0.14000003039836884,
                -0.2401750683784485,
                -2.0500874519348145
            ],
            "type" : "VEC3"
        },
        {
            "bufferView" : 9,
            "componentType" : 5126,
            "count" : 4032,
            "type" : "VEC3"
        },
        {
            "bufferView" : 10,
            "componentType" : 5126,
            "count" : 4032,
            "type" : "VEC2"
        },
        {
            "bufferView" : 11,
            "componentType" : 5123,
            "count" : 7812,
            "type" : "SCALAR"
        }
    ],
    "bufferViews" : [
        {
            "buffer" : 0,
            "byteLength" : 50976,
            "byteOffset" : 0
        },
        {
            "buffer" : 0,
            "byteLength" : 50976,
            "byteOffset" : 50976
        },
        {
            "buffer" : 0,
            "byteLength" : 33984,
            "byteOffset" : 101952
        },
        {
            "buffer" : 0,
            "byteLength" : 12792,
            "byteOffset" : 135936
        },
        {
            "buffer" : 0,
            "byteLength" : 2304,
            "byteOffset" : 148728
        },
        {
            "buffer" : 0,
            "byteLength" : 2304,
            "byteOffset" : 151032
        },
        {
            "buffer" : 0,
            "byteLength" : 1536,
            "byteOffset" : 153336
        },
        {
            "buffer" : 0,
            "byteLength" : 744,
            "byteOffset" : 154872
        },
        {
            "buffer" : 0,
            "byteLength" : 48384,
            "byteOffset" : 155616
        },
        {
            "buffer" : 0,
            "byteLength" : 48384,
            "byteOffset" : 204000
        },
        {
            "buffer" : 0,
            "byteLength" : 32256,
            "byteOffset" : 252384
        },
        {
            "buffer" : 0,
            "byteLength" : 15624,
            "byteOffset" : 284640
        }
    ],
    "buffers" : [
        {
            "byteLength" : 300264,
            "uri" : "data:application/octet-stream;base64,"
        }
    ]
}
